<svg viewBox="0 0 617 471" fill="none" xmlns="http://www.w3.org/2000/svg">
<rect rx="12" transform="matrix(-1 0 0 1 617 0)" fill="#121826"/>
<circle cx="102" cy="149" r="49.5" fill="#121826" stroke="#424A57"/>
<path d="M80.8284 127.027L106.838 125.106C110.033 124.832 110.854 125.017 112.863 126.477L121.165 132.326C122.534 133.332 122.99 133.606 122.99 134.701V166.779C122.99 168.79 122.26 169.979 119.705 170.16L89.5009 171.99C87.5831 172.081 86.6697 171.806 85.6652 170.526L79.5512 162.576C78.4546 161.113 78.0001 160.017 78.0001 158.737V130.224C78.0001 128.58 78.7301 127.209 80.8284 127.027Z" fill="white"/>
<path d="M86.8657 131.848L85.8792 131.063L108.061 129.442L108.074 129.441L108.087 129.44C108.892 129.37 109.421 129.479 109.792 129.619C110.176 129.763 110.486 129.974 110.852 130.259L110.876 130.278L110.901 130.296L111.981 131.078L90.3965 132.378L90.3965 132.378L90.3833 132.379L90.0644 132.4C90.0641 132.4 90.0639 132.4 90.0637 132.4C88.7355 132.49 88.2417 132.51 87.8866 132.446C87.6889 132.41 87.4767 132.344 86.8806 131.86L86.8732 131.854L86.8657 131.848ZM80.6972 125.252L80.6861 125.253L80.675 125.254C79.2358 125.378 78.0304 125.947 77.2228 126.983C76.4517 127.973 76.2196 129.165 76.2196 130.224V158.737C76.2196 160.548 76.9051 162.014 78.1263 163.644L78.133 163.653L78.1398 163.661L84.2538 171.611L84.2592 171.618L84.2646 171.625C84.8994 172.434 85.6302 173.079 86.6287 173.444C87.5662 173.787 88.5662 173.816 89.5855 173.768L89.597 173.767L89.6085 173.767L119.813 171.938L119.822 171.937L119.832 171.937C121.335 171.83 122.703 171.401 123.643 170.331C124.568 169.279 124.771 167.95 124.771 166.78V134.702C124.771 133.89 124.593 133.127 124.023 132.417C123.618 131.914 123.036 131.488 122.537 131.123C122.5 131.096 122.463 131.068 122.426 131.042L122.412 131.032L122.398 131.022L113.899 125.029C112.849 124.266 111.904 123.681 110.69 123.405C109.533 123.142 108.275 123.196 106.686 123.332L106.657 123.335L80.6972 125.252ZM89.0896 139.209L118.105 137.51V164.494C118.105 164.715 118.097 164.874 118.082 164.992C118.049 164.996 118.009 164.999 117.962 165.002L117.957 165.002L111.727 165.363C112.49 165.144 113.25 164.809 113.977 164.418L114.914 163.914V162.85V144.211C115.912 144.025 116.62 143.362 116.947 142.527C117.247 141.76 117.197 140.959 117.062 140.35L116.735 138.868L115.22 138.956L108.921 139.324L108.886 139.326L108.852 139.329C107.121 139.499 105.408 141.013 105.815 143.248L106.051 144.548L107.363 144.698L108.158 144.79V149.83L102.123 140.585L101.553 139.712L100.512 139.782L93.7589 140.236L93.7589 140.236L93.7505 140.237C92.5092 140.327 91.5702 140.985 91.0347 141.863C90.5386 142.676 90.3997 143.652 90.5894 144.503L90.875 145.784L92.1836 145.89L92.828 145.942V160.95L92.4888 161.044L92.4888 161.044L92.4764 161.047C91.3961 161.355 90.8663 162.228 90.6551 162.839C90.5419 163.167 90.4823 163.511 90.4791 163.846C90.476 164.156 90.5201 164.589 90.7343 165.017L91.2589 166.067L92.43 165.999L98.6767 165.636C100.278 165.622 101.42 165.001 102.081 164.048C102.382 163.615 102.529 163.187 102.603 162.869C102.64 162.708 102.66 162.568 102.671 162.457C102.677 162.402 102.68 162.353 102.682 162.312C102.683 162.291 102.684 162.272 102.684 162.255L102.684 162.232L102.684 162.221L102.684 162.216L102.684 162.213C102.684 162.212 102.684 162.211 100.904 162.211L102.684 162.211L102.684 160.788L101.297 160.474L99.8547 160.148V154.075L105.517 162.983L105.568 163.064L105.628 163.138C105.659 163.177 105.69 163.216 105.721 163.255C106.18 163.831 106.695 164.478 107.325 164.916C107.796 165.244 108.281 165.433 108.787 165.534L89.5813 166.647C89.5804 166.647 89.5795 166.647 89.5786 166.647C89.3615 166.659 89.2038 166.654 89.0936 166.642C89.0911 166.603 89.0895 166.558 89.0895 166.506V164.725H89.0891V139.274C89.0891 139.251 89.0893 139.229 89.0896 139.209Z" fill="black" stroke="white" stroke-width="3.56102"/>
<circle cx="516" cy="149" r="49.5" fill="#121826" stroke="#4D5562"/>
<g clip-path="url(#clip0_8_557)">
<path d="M538.71 133.319L524.64 119.237H496.086C494.833 119.237 493.816 120.253 493.816 121.507V161.79H538.71V133.319Z" fill="#EFF3F5"/>
<path d="M524.64 131.048C524.64 132.302 525.657 133.319 526.91 133.319H538.722L524.64 119.237V131.048Z" fill="#DBDFE0"/>
<path d="M493.827 161.778V177.031C493.827 178.284 494.844 179.301 496.097 179.301H536.452C537.705 179.301 538.722 178.284 538.722 177.031V161.778H493.827Z" fill="#F1786B"/>
<path d="M504.752 159.2C504.031 159.2 503.333 158.929 502.695 158.396C501.619 157.498 501.536 156.505 501.643 155.831C502.163 152.792 507.815 150.013 511.102 148.642C512.887 144.173 514.436 138.911 515.394 134.962C513.478 130.859 512.804 127.962 513.395 126.319C513.691 125.503 514.294 124.971 515.145 124.782L515.264 124.758L515.382 124.77C515.476 124.782 516.316 124.912 517.002 125.834C517.888 127.04 518.089 128.991 517.593 131.639C517.451 132.396 517.215 133.484 516.907 134.785C518.657 138.426 521.116 142.446 523.126 145.237C524.805 145 526.402 144.917 527.749 145.059C530.268 145.319 530.8 146.419 530.895 147.058C531.036 147.992 530.351 148.961 529.18 149.458C527.56 150.144 524.912 149.966 522.76 147.176C522.665 147.058 522.571 146.927 522.476 146.797C519.709 147.259 516.493 148.134 513.23 149.351C512.887 149.481 512.556 149.611 512.225 149.742C510.014 155.157 507.85 158.266 505.781 159.011C505.45 159.141 505.095 159.2 504.752 159.2ZM510.309 150.557C505.615 152.674 503.286 154.767 503.073 156.079C503.026 156.363 503.026 156.8 503.629 157.297C504.185 157.758 504.717 157.876 505.308 157.663C506.952 157.072 508.701 154.235 510.309 150.557ZM524.143 146.573C525.739 148.453 527.537 148.606 528.624 148.134C529.192 147.897 529.511 147.495 529.476 147.27C529.44 147.034 528.908 146.632 527.608 146.502C526.638 146.407 525.467 146.431 524.143 146.573ZM516.387 136.948C515.666 139.727 514.684 143.073 513.537 146.313C513.336 146.868 513.147 147.4 512.946 147.921C515.512 146.975 518.61 146.053 521.554 145.497C519.969 143.239 518.019 140.105 516.387 136.948ZM515.323 126.248C515.051 126.342 514.873 126.52 514.767 126.827C514.353 127.962 514.897 130.102 515.949 132.633C516.044 132.183 516.127 131.77 516.198 131.391C516.742 128.447 516.221 127.182 515.855 126.697C515.654 126.425 515.441 126.295 515.323 126.248Z" fill="#F1786B"/>
<path d="M526.957 169.629H524.249V166.874H526.957C527.466 166.874 527.879 166.46 527.879 165.952C527.879 165.444 527.466 165.03 526.957 165.03H523.339C522.831 165.03 522.417 165.444 522.417 165.952V175.127C522.417 175.636 522.831 176.049 523.339 176.049C523.847 176.049 524.261 175.636 524.261 175.127V171.462H526.969C527.477 171.462 527.891 171.048 527.891 170.54C527.879 170.031 527.466 169.629 526.957 169.629Z" fill="#EFF3F5"/>
<path d="M507.448 165.042H505.58C505.071 165.042 504.658 165.455 504.658 165.964V175.139C504.658 175.647 505.071 176.061 505.58 176.061C506.088 176.061 506.502 175.647 506.502 175.139V171.474H507.448C509.221 171.474 510.664 170.031 510.664 168.258C510.664 166.484 509.221 165.042 507.448 165.042ZM507.448 169.629H506.502V166.874H507.448C508.205 166.874 508.819 167.489 508.819 168.246C508.819 169.002 508.205 169.629 507.448 169.629Z" fill="#EFF3F5"/>
<path d="M515.37 165.042H512.958C512.449 165.042 512.036 165.455 512.036 165.964V175.139C512.036 175.647 512.449 176.061 512.958 176.061H515.37C518.409 176.061 520.88 173.59 520.88 170.551C520.88 167.501 518.409 165.042 515.37 165.042ZM515.37 174.205H513.88V166.862H515.37C517.392 166.862 519.035 168.506 519.035 170.528C519.047 172.561 517.392 174.205 515.37 174.205Z" fill="#EFF3F5"/>
</g>
<circle cx="202" cy="323" r="49.5" fill="#121826" stroke="#4D5562"/>
<g clip-path="url(#clip1_8_557)">
<path d="M180.097 296.783L180.091 349.75C180.091 351.83 181.793 353.533 183.873 353.533L220.657 353.537C222.738 353.538 224.441 351.835 224.441 349.754L224.446 306.939C224.447 305.777 223.985 304.663 223.164 303.841L213.611 294.286C212.79 293.465 211.676 293.003 210.514 293.003L183.881 293C181.8 293 180.097 294.702 180.097 296.783Z" fill="url(#paint0_linear_8_557)"/>
<path d="M213.057 317.36H191.481C190.158 317.36 189.085 318.434 189.085 319.758V342.496C189.085 343.819 190.158 344.892 191.481 344.892H213.057C214.381 344.892 215.454 343.819 215.454 342.496V319.758C215.454 318.434 214.381 317.36 213.057 317.36ZM211.028 325.49H204.915C204.437 325.49 204.05 325.103 204.05 324.625V321.786C204.05 321.308 204.437 320.921 204.915 320.921H211.028C211.506 320.921 211.893 321.308 211.893 321.786V324.625C211.893 325.103 211.506 325.49 211.028 325.49ZM204.915 329.051H211.028C211.506 329.051 211.893 329.438 211.893 329.916V332.336C211.893 332.814 211.506 333.201 211.028 333.201H204.915C204.437 333.201 204.05 332.814 204.05 332.336V329.916C204.05 329.438 204.437 329.051 204.915 329.051ZM199.624 333.201H193.511C193.033 333.201 192.646 332.814 192.646 332.336V329.916C192.646 329.438 193.033 329.051 193.511 329.051H199.624C200.102 329.051 200.489 329.438 200.489 329.916V332.336C200.489 332.814 200.102 333.201 199.624 333.201ZM200.489 321.786V324.625C200.489 325.103 200.102 325.49 199.624 325.49H193.511C193.033 325.49 192.646 325.103 192.646 324.625V321.786C192.646 321.308 193.033 320.921 193.511 320.921H199.624C200.102 320.921 200.489 321.308 200.489 321.786ZM193.511 336.762H199.624C200.102 336.762 200.489 337.149 200.489 337.627V340.466C200.489 340.944 200.102 341.331 199.624 341.331H193.511C193.033 341.331 192.646 340.944 192.646 340.466V337.627C192.646 337.149 193.033 336.762 193.511 336.762ZM204.05 340.466V337.627C204.05 337.149 204.437 336.762 204.915 336.762H211.028C211.506 336.762 211.893 337.149 211.893 337.627V340.466C211.893 340.944 211.506 341.331 211.028 341.331H204.915C204.437 341.331 204.05 340.944 204.05 340.466Z" fill="#EBEFF0"/>
<path d="M213.608 294.285C213.045 293.722 212.345 293.329 211.587 293.136V305.471L224.445 318.329V306.936C224.445 305.774 223.983 304.66 223.162 303.839L213.608 294.285Z" fill="url(#paint1_linear_8_557)"/>
<path d="M224.315 305.874C224.329 305.935 224.342 305.994 224.353 306.051H212.763C211.943 306.051 211.277 305.385 211.277 304.565V293.071C211.368 293.087 211.463 293.106 211.561 293.128C212.425 293.319 213.213 293.763 213.839 294.389L223.056 303.606C223.679 304.229 224.117 305.015 224.315 305.874Z" fill="url(#paint2_linear_8_557)"/>
<path d="M224.445 346.082V349.751C224.445 351.833 222.742 353.535 220.661 353.535H183.877C181.796 353.535 180.094 351.833 180.094 349.753V346.082H224.445Z" fill="url(#paint3_linear_8_557)"/>
</g>
<circle cx="309" cy="149" r="49.5" fill="#121826" stroke="#4D5562"/>
<g clip-path="url(#clip2_8_557)">
<path d="M287.092 122.784V175.754C287.092 177.835 288.794 179.537 290.875 179.537H327.661C329.743 179.537 331.445 177.834 331.445 175.753V132.935C331.445 131.773 330.984 130.659 330.163 129.837L320.608 120.283C319.786 119.462 318.672 119 317.511 119H290.876C288.795 119 287.092 120.703 287.092 122.784Z" fill="url(#paint4_linear_8_557)"/>
<path d="M297.174 148.205H321.363C321.966 148.205 322.455 147.717 322.455 147.114V144.452C322.455 143.849 321.966 143.36 321.363 143.36H297.174C296.572 143.36 296.083 143.849 296.083 144.452V147.114C296.083 147.717 296.572 148.205 297.174 148.205Z" fill="#EBEFF0"/>
<path d="M297.174 155.768H321.363C321.966 155.768 322.455 155.279 322.455 154.677V152.015C322.455 151.412 321.966 150.923 321.363 150.923H297.174C296.572 150.923 296.083 151.412 296.083 152.015V154.677C296.083 155.279 296.572 155.768 297.174 155.768Z" fill="#EBEFF0"/>
<path d="M297.174 163.331H321.363C321.966 163.331 322.455 162.843 322.455 162.24V159.578C322.455 158.975 321.966 158.486 321.363 158.486H297.174C296.572 158.486 296.083 158.975 296.083 159.578V162.24C296.083 162.843 296.572 163.331 297.174 163.331Z" fill="#EBEFF0"/>
<path d="M296.873 170.894H309.118C309.554 170.894 309.908 170.54 309.908 170.104V166.84C309.908 166.403 309.554 166.049 309.118 166.049H296.873C296.437 166.049 296.083 166.403 296.083 166.84V170.104C296.083 170.54 296.437 170.894 296.873 170.894Z" fill="#EBEFF0"/>
<path d="M320.608 120.283C320.045 119.72 319.345 119.327 318.587 119.135V131.47L331.446 144.329V132.935C331.446 131.773 330.984 130.659 330.163 129.838L320.608 120.283Z" fill="url(#paint5_linear_8_557)"/>
<path d="M331.316 131.872C331.33 131.933 331.343 131.992 331.354 132.049H319.763C318.943 132.049 318.277 131.384 318.277 130.563V119.069C318.368 119.085 318.463 119.104 318.561 119.126C319.425 119.317 320.213 119.761 320.839 120.387L330.057 129.605C330.68 130.228 331.118 131.014 331.316 131.872Z" fill="url(#paint6_linear_8_557)"/>
<path d="M331.445 172.083V175.753C331.445 177.834 329.742 179.537 327.661 179.537H290.875C288.794 179.537 287.092 177.835 287.092 175.754V172.083H331.445Z" fill="url(#paint7_linear_8_557)"/>
</g>
<circle cx="404" cy="323" r="49.5" fill="#121826" stroke="#4D5562"/>
<path d="M426.466 336.385V350.51C426.464 351.045 426.251 351.557 425.873 351.935C425.495 352.314 424.982 352.527 424.448 352.528H384.09C383.555 352.527 383.042 352.314 382.664 351.935C382.286 351.557 382.073 351.045 382.072 350.51V336.385L383.081 335.376H425.457L426.466 336.385Z" fill="#2579F2"/>
<path d="M426.466 307.125V336.385H382.072V296.027C382.073 295.492 382.286 294.98 382.664 294.602C383.042 294.224 383.555 294.01 384.09 294.009H413.349C413.417 294.007 413.484 294.01 413.551 294.019C414.155 294.027 414.752 294.155 415.306 294.395C415.861 294.636 416.362 294.985 416.78 295.421L425.053 303.695C425.49 304.113 425.838 304.614 426.079 305.168C426.32 305.722 426.448 306.319 426.456 306.923C426.464 306.99 426.468 307.058 426.466 307.125Z" fill="#E8EDF3"/>
<path d="M426.455 306.924C426.404 306.426 426.17 305.966 425.8 305.63C425.429 305.295 424.947 305.109 424.448 305.107H418.394C417.591 305.107 416.821 304.789 416.253 304.221C415.686 303.653 415.367 302.883 415.367 302.081V296.027C415.366 295.527 415.179 295.045 414.844 294.675C414.509 294.304 414.048 294.07 413.551 294.019C414.155 294.027 414.752 294.155 415.306 294.395C415.861 294.636 416.361 294.985 416.779 295.421L425.053 303.695C425.489 304.113 425.838 304.614 426.079 305.168C426.32 305.723 426.448 306.319 426.455 306.924Z" fill="#BFCEDD"/>
<path d="M404.268 332.349C412.07 332.349 418.394 326.025 418.394 318.224C418.394 310.423 412.07 304.098 404.268 304.098C396.467 304.098 390.143 310.423 390.143 318.224C390.143 326.025 396.467 332.349 404.268 332.349Z" fill="#2579F2"/>
<path d="M398.317 339.412C398.05 339.412 397.793 339.518 397.604 339.708C397.414 339.897 397.308 340.153 397.308 340.421V345.466L396.097 343.852C395.999 343.732 395.876 343.636 395.737 343.57C395.597 343.505 395.445 343.47 395.29 343.47C395.136 343.47 394.984 343.505 394.844 343.57C394.704 343.636 394.581 343.732 394.483 343.852L393.272 345.466V340.421C393.272 340.153 393.166 339.897 392.977 339.708C392.788 339.518 392.531 339.412 392.263 339.412C391.996 339.412 391.739 339.518 391.55 339.708C391.361 339.897 391.254 340.153 391.254 340.421V348.493C391.254 348.704 391.321 348.911 391.445 349.083C391.569 349.254 391.743 349.383 391.944 349.45C392.145 349.517 392.362 349.519 392.564 349.456C392.766 349.393 392.944 349.267 393.071 349.098L395.29 346.139L397.51 349.098C397.604 349.223 397.726 349.325 397.866 349.395C398.006 349.465 398.161 349.502 398.317 349.502C398.585 349.502 398.841 349.395 399.031 349.206C399.22 349.017 399.326 348.76 399.326 348.493V340.421C399.326 340.153 399.22 339.897 399.031 339.708C398.841 339.518 398.585 339.412 398.317 339.412Z" fill="white"/>
<path d="M407.398 341.43C407.665 341.43 407.922 341.323 408.111 341.134C408.3 340.945 408.407 340.688 408.407 340.421C408.407 340.153 408.3 339.897 408.111 339.707C407.922 339.518 407.665 339.412 407.398 339.412H402.353C402.085 339.412 401.829 339.518 401.639 339.707C401.45 339.897 401.344 340.153 401.344 340.421V348.492C401.344 348.76 401.45 349.017 401.639 349.206C401.829 349.395 402.085 349.501 402.353 349.501H407.398C407.665 349.501 407.922 349.395 408.111 349.206C408.3 349.017 408.407 348.76 408.407 348.492C408.407 348.225 408.3 347.968 408.111 347.779C407.922 347.59 407.665 347.484 407.398 347.484H403.362V345.466H405.38C405.647 345.466 405.904 345.359 406.093 345.17C406.282 344.981 406.389 344.724 406.389 344.457C406.389 344.189 406.282 343.932 406.093 343.743C405.904 343.554 405.647 343.448 405.38 343.448H403.362V341.43H407.398Z" fill="white"/>
<path d="M414.46 339.412H411.434C411.166 339.412 410.909 339.518 410.72 339.707C410.531 339.897 410.425 340.153 410.425 340.421V348.492C410.425 348.76 410.531 349.017 410.72 349.206C410.909 349.395 411.166 349.501 411.434 349.501H414.46C415.045 349.501 415.616 349.332 416.106 349.014C416.596 348.696 416.984 348.243 417.222 347.709C417.46 347.176 417.539 346.585 417.449 346.008C417.359 345.431 417.104 344.892 416.714 344.457C417.104 344.021 417.359 343.482 417.449 342.905C417.539 342.328 417.46 341.737 417.222 341.204C416.984 340.671 416.596 340.218 416.106 339.9C415.616 339.582 415.045 339.412 414.46 339.412ZM414.46 347.484H412.442V345.466H414.46C414.728 345.466 414.985 345.572 415.174 345.761C415.363 345.95 415.469 346.207 415.469 346.475C415.469 346.742 415.363 346.999 415.174 347.188C414.985 347.377 414.728 347.484 414.46 347.484ZM414.46 343.448H412.442V341.43H414.46C414.728 341.43 414.985 341.536 415.174 341.725C415.363 341.915 415.469 342.171 415.469 342.439C415.469 342.706 415.363 342.963 415.174 343.152C414.985 343.341 414.728 343.448 414.46 343.448Z" fill="white"/>
<path d="M404.268 303.09C401.275 303.09 398.349 303.977 395.86 305.64C393.371 307.303 391.432 309.667 390.286 312.432C389.141 315.198 388.841 318.241 389.425 321.176C390.009 324.112 391.45 326.809 393.567 328.926C395.683 331.042 398.38 332.484 401.316 333.067C404.252 333.651 407.295 333.352 410.06 332.206C412.826 331.061 415.189 329.121 416.852 326.632C418.515 324.143 419.403 321.217 419.403 318.224C419.398 314.211 417.802 310.365 414.965 307.527C412.128 304.69 408.281 303.094 404.268 303.09ZM391.204 319.233H396.223C396.273 320.93 396.482 322.619 396.849 324.278H392.644C391.826 322.711 391.336 320.995 391.204 319.233ZM405.277 310.152V305.319C406.684 305.883 408.045 307.596 408.999 310.152H405.277ZM409.616 312.17C410.015 313.824 410.242 315.515 410.293 317.215H405.277V312.17H409.616ZM403.26 305.319V310.152H399.538C400.492 307.596 401.853 305.883 403.26 305.319ZM403.26 312.17V317.215H398.24C398.291 315.515 398.518 313.824 398.917 312.17H403.26ZM396.223 317.215H391.204C391.336 315.453 391.826 313.736 392.644 312.17H396.849C396.482 313.828 396.273 315.517 396.223 317.215ZM398.241 319.233H403.26V324.278H398.921C398.52 322.624 398.293 320.933 398.241 319.233ZM403.26 326.296V331.128C401.853 330.564 400.492 328.852 399.538 326.296H403.26ZM405.277 331.128V326.296H408.999C408.045 328.852 406.684 330.564 405.277 331.128ZM405.277 324.278V319.233H410.297C410.246 320.933 410.019 322.624 409.62 324.278H405.277ZM412.314 319.233H417.333C417.201 320.995 416.711 322.711 415.893 324.278H411.688C412.055 322.619 412.264 320.93 412.314 319.233ZM412.314 317.215C412.264 315.517 412.055 313.828 411.688 312.17H415.893C416.711 313.736 417.201 315.453 417.333 317.215H412.314ZM414.586 310.152H411.123C410.66 308.687 409.978 307.301 409.098 306.041C411.259 306.902 413.152 308.321 414.586 310.152ZM399.439 306.041C398.559 307.301 397.877 308.687 397.414 310.152H393.951C395.385 308.321 397.278 306.902 399.439 306.041ZM393.952 326.296H397.414C397.877 327.761 398.559 329.147 399.439 330.407C397.278 329.546 395.385 328.127 393.952 326.296ZM409.098 330.407C409.978 329.147 410.66 327.761 411.123 326.296H414.585C413.152 328.127 411.259 329.546 409.098 330.407Z" fill="#165EB5"/>
<defs>
<linearGradient id="paint0_linear_8_557" x1="190.659" y1="316.6" x2="219.453" y2="345.394" gradientUnits="userSpaceOnUse">
<stop stop-color="#28A265"/>
<stop offset="1" stop-color="#28895E"/>
</linearGradient>
<linearGradient id="paint1_linear_8_557" x1="220.679" y1="313.622" x2="216.11" y2="300.269" gradientUnits="userSpaceOnUse">
<stop stop-color="#108372" stop-opacity="0"/>
<stop offset="1" stop-color="#108372"/>
</linearGradient>
<linearGradient id="paint2_linear_8_557" x1="212.746" y1="299.973" x2="218.054" y2="305.281" gradientUnits="userSpaceOnUse">
<stop stop-color="#91D1B2"/>
<stop offset="1" stop-color="#28A265"/>
</linearGradient>
<linearGradient id="paint3_linear_8_557" x1="202.269" y1="348.04" x2="202.269" y2="353.926" gradientUnits="userSpaceOnUse">
<stop stop-color="#108372" stop-opacity="0"/>
<stop offset="1" stop-color="#108372"/>
</linearGradient>
<linearGradient id="paint4_linear_8_557" x1="297.654" y1="142.603" x2="326.45" y2="171.399" gradientUnits="userSpaceOnUse">
<stop stop-color="#7FAEF4"/>
<stop offset="1" stop-color="#4C8DF1"/>
</linearGradient>
<linearGradient id="paint5_linear_8_557" x1="327.68" y1="139.622" x2="323.11" y2="126.268" gradientUnits="userSpaceOnUse">
<stop stop-color="#4C8DF1" stop-opacity="0"/>
<stop offset="1" stop-color="#4256AC"/>
</linearGradient>
<linearGradient id="paint6_linear_8_557" x1="319.747" y1="125.971" x2="325.055" y2="131.28" gradientUnits="userSpaceOnUse">
<stop stop-color="#A7C5FD"/>
<stop offset="1" stop-color="#7FAEF4"/>
</linearGradient>
<linearGradient id="paint7_linear_8_557" x1="309.269" y1="174.041" x2="309.269" y2="179.928" gradientUnits="userSpaceOnUse">
<stop stop-color="#4C8DF1" stop-opacity="0"/>
<stop offset="1" stop-color="#4256AC"/>
</linearGradient>
<clipPath id="clip0_8_557">
<rect x="486" y="119" width="60.5373" height="60.5373" rx="12" fill="white"/>
</clipPath>
<clipPath id="clip1_8_557">
<rect x="172" y="293" width="60.5373" height="60.5373" rx="12" fill="white"/>
</clipPath>
<clipPath id="clip2_8_557">
<rect x="279" y="119" width="60.5373" height="60.5373" rx="12" fill="white"/>
</clipPath>
</defs>
</svg>
