<svg  viewBox="0 0 514 274" fill="none" xmlns="http://www.w3.org/2000/svg">
<circle cx="150" cy="224" r="49.5" stroke="#4D5562"/>
<path d="M173.733 210.643C173.024 209.109 171.915 207.792 170.477 206.905C164.726 203.355 159.582 203.03 158.437 203.003C158.283 202.999 158.143 203.067 158.041 203.183V203.183C157.779 203.483 157.914 203.954 158.294 204.075C158.803 204.238 159.295 204.404 159.771 204.573C161.483 205.183 160.814 206.511 159.037 206.13C152.994 204.834 146.644 204.834 140.504 206.12C138.5 206.539 137.778 205.101 139.713 204.433C140.351 204.213 141.018 203.998 141.716 203.791C141.995 203.708 142.103 203.365 141.917 203.141V203.141C141.842 203.052 141.733 202.999 141.617 203.001C140.594 203.02 135.412 203.297 129.545 206.898C128.093 207.79 126.972 209.115 126.257 210.662C124.363 214.763 120.727 223.909 120.095 234.821C119.972 236.942 120.544 239.072 122.082 240.538C124.225 242.582 128.137 245.229 134.331 245.751C135.18 245.822 136.001 245.449 136.545 244.793C136.779 244.51 137.048 244.184 137.335 243.833C138.203 242.775 136.029 240.466 134.845 239.779V239.779C133.079 238.754 135.539 238.474 137.465 239.154C139.359 239.823 141.362 240.359 143.548 240.79C149.443 242.004 156.346 241.492 162.638 239.306C164.534 238.647 166.997 238.928 165.242 239.902V239.902C164.065 240.556 161.873 242.828 162.73 243.866C163.008 244.202 163.267 244.514 163.492 244.784C164.014 245.412 164.8 245.771 165.614 245.704C176.011 244.852 180 238.015 180 238.065C180 225.726 175.809 215.133 173.733 210.643ZM140.411 233.284C137.532 233.284 135.167 230.764 135.167 227.628C135.377 220.117 145.498 220.14 145.656 227.628C145.656 230.764 143.341 233.284 140.411 233.284ZM159.177 233.284C156.297 233.284 153.933 230.764 153.933 227.628C154.164 220.132 164.157 220.129 164.421 227.628C164.421 230.764 162.108 233.284 159.177 233.284Z" fill="#6665D2"/>
<circle cx="257" cy="50" r="49.5" stroke="#4D5562"/>
<path d="M239.606 57.9152C239.606 61.3843 236.772 64.2182 233.303 64.2182C229.834 64.2182 227 61.3843 227 57.9152C227 54.4463 229.834 51.6123 233.303 51.6123V51.6123C236.784 51.6123 239.606 54.4342 239.606 57.9152V57.9152Z" fill="#E01E5A"/>
<path d="M242.782 57.9152C242.782 54.4463 245.616 51.6123 249.085 51.6123C252.554 51.6123 255.388 54.4463 255.388 57.9152V73.697C255.388 77.1661 252.554 79.9999 249.085 79.9999C245.616 79.9999 242.782 77.1661 242.782 73.697V57.9152Z" fill="#E01E5A"/>
<path d="M249.085 32.6059C245.616 32.6059 242.782 29.772 242.782 26.3029C242.782 22.8339 245.616 20 249.085 20C252.554 20 255.388 22.8339 255.388 26.3029V26.3029C255.388 29.7839 252.566 32.6059 249.085 32.6059V32.6059Z" fill="#36C5F0"/>
<path d="M249.085 35.7817C252.554 35.7817 255.388 38.6157 255.388 42.0847C255.388 45.5538 252.554 48.3876 249.085 48.3876H233.303C229.834 48.3876 227 45.5538 227 42.0847C227 38.6157 229.834 35.7817 233.303 35.7817H249.085Z" fill="#36C5F0"/>
<path d="M274.394 42.0847C274.394 38.6157 277.228 35.7817 280.697 35.7817C284.166 35.7817 287 38.6157 287 42.0847C287 45.5538 284.166 48.3876 280.697 48.3876V48.3876C277.216 48.3876 274.394 45.5657 274.394 42.0847V42.0847Z" fill="#2EB67D"/>
<path d="M271.218 42.0847C271.218 45.5538 268.384 48.3876 264.915 48.3876C261.446 48.3876 258.612 45.5538 258.612 42.0847V26.3029C258.612 22.8339 261.446 20 264.915 20C268.384 20 271.218 22.8339 271.218 26.3029V42.0847Z" fill="#2EB67D"/>
<path d="M264.915 67.394C268.384 67.394 271.218 70.228 271.218 73.697C271.218 77.1661 268.384 79.9999 264.915 79.9999C261.446 79.9999 258.612 77.1661 258.612 73.697V73.697C258.612 70.216 261.434 67.394 264.915 67.394V67.394Z" fill="#ECB22E"/>
<path d="M264.915 64.2182C261.446 64.2182 258.612 61.3843 258.612 57.9152C258.612 54.4463 261.446 51.6123 264.915 51.6123H280.697C284.166 51.6123 287 54.4463 287 57.9152C287 61.3843 284.166 64.2182 280.697 64.2182H264.915Z" fill="#ECB22E"/>
<circle cx="352" cy="224" r="49.5" stroke="#4D5562"/>
<path d="M352 194C335.4 194 322 207.4 322 224C322 229.875 323.685 235.353 326.662 240.04C326.678 240.066 326.659 240.1 326.628 240.1V240.1C326.611 240.1 326.596 240.111 326.591 240.127L325.372 243.81C323.977 248.027 327.977 252.036 332.197 250.65L333.315 250.282C335.016 249.723 336.861 249.985 338.459 250.791C342.51 252.836 347.118 254 352 254C368.6 254 382 240.6 382 224C382 207.4 368.6 194 352 194ZM358.853 230.434C357.331 232.336 354.493 232.493 352.771 230.771L347.635 225.635C346.692 224.692 345.204 224.568 344.118 225.344V225.344C341.65 227.107 338.578 224.132 340.261 221.609L343.442 216.837C344.765 214.852 347.574 214.574 349.261 216.261L354.333 221.333C355.319 222.319 356.84 222.528 358.054 221.844V221.844C361.032 220.17 364.139 223.827 362.005 226.494L358.853 230.434Z" fill="url(#paint0_linear_8_561)"/>
<circle cx="464" cy="50" r="49.5" stroke="#4D5562"/>
<path d="M486.235 40.7411C489.614 40.7411 492.353 38.0021 492.353 34.6235C492.353 31.2448 489.614 28.5059 486.235 28.5059C482.856 28.5059 480.117 31.2448 480.117 34.6235C480.117 38.0021 482.856 40.7411 486.235 40.7411Z" fill="#4F59CA"/>
<path d="M484.917 69.7291H483.976C478.941 69.7291 474.894 65.635 474.894 60.6468V46.2469C474.894 44.7881 476.07 43.6587 477.482 43.6587H491.411C492.87 43.6587 494 44.8352 494 46.2469V60.5998C494.047 65.635 489.953 69.7291 484.917 69.7291Z" fill="#4F59CA"/>
<path d="M467.035 40.5999C471.895 40.5999 475.835 36.66 475.835 31.7999C475.835 26.9399 471.895 23 467.035 23C462.175 23 458.235 26.9399 458.235 31.7999C458.235 36.66 462.175 40.5999 467.035 40.5999Z" fill="#7B82EA"/>
<path d="M467.082 77.8703H465.576C457.67 77.8703 451.223 71.4233 451.223 63.5175V45.8705C451.223 44.694 452.212 43.7058 453.388 43.7058H479.27C480.447 43.7058 481.435 44.694 481.435 45.8705V63.5175C481.435 71.4233 475.035 77.8703 467.082 77.8703Z" fill="#7B82EA"/>
<path d="M461.953 66.1528H437.012C435.365 66.1528 434 64.7881 434 63.141V38.5764C434 36.9294 435.365 35.5647 437.012 35.5647H461.953C463.6 35.5647 464.965 36.9294 464.965 38.5764V63.141C464.965 64.7881 463.647 66.1528 461.953 66.1528Z" fill="#4C53BB"/>
<path d="M447.788 45.2118H444.188C443.473 45.2118 442.894 44.6324 442.894 43.9176V43.9176C442.894 43.2029 443.473 42.6235 444.188 42.6235H454.541C455.256 42.6235 455.835 43.2029 455.835 43.9176V43.9176C455.835 44.6324 455.256 45.2118 454.541 45.2118H453.388C452.037 45.2118 450.941 46.3073 450.941 47.6588V57.9176C450.941 58.7752 450.246 59.4705 449.388 59.4705V59.4705C448.53 59.4705 447.835 58.7752 447.835 57.9176V45.2588C447.835 45.2328 447.814 45.2118 447.788 45.2118V45.2118Z" fill="white"/>
<path opacity="0.2" d="M466.282 43.7058C465.58 43.7058 465.012 44.2747 465.012 44.9764V63.0939C465.012 64.741 463.647 66.1057 462 66.1057H453.198C452.319 66.1057 451.678 66.9378 451.901 67.7882V67.7882C452.056 68.3774 452.589 68.788 453.198 68.788H464.541C466.188 68.788 467.553 67.4233 467.553 65.7763V44.9764C467.553 44.2747 466.984 43.7058 466.282 43.7058V43.7058Z" fill="black"/>
<circle cx="50" cy="50" r="49.5" stroke="#4D5562"/>
<path d="M50 80C33.434 80 20 66.566 20 50C20 33.434 33.434 20 50 20C66.566 20 80 33.434 80 50C80 66.566 66.566 80 50 80Z" fill="#25D366"/>
<path fill-rule="evenodd" clip-rule="evenodd" d="M64.034 36.032C60.314 32.306 55.358 30.254 50.084 30.248C39.218 30.248 30.368 39.092 30.368 49.964C30.368 52.7455 30.9488 55.477 32.0673 57.9891C32.603 59.1924 32.8063 60.5371 32.4587 61.8075V61.8075C31.4575 65.4663 34.7927 68.8368 38.4618 67.8742L38.7083 67.8095C39.9605 67.481 41.2798 67.6709 42.4738 68.1711C44.8702 69.175 47.4552 69.698 50.078 69.698H50.084C60.95 69.698 69.794 60.854 69.8 49.982C69.806 44.714 67.76 39.758 64.034 36.032ZM50.09 66.368H50.084C47.144 66.368 44.258 65.576 41.744 64.082V64.082C41.36 63.8555 40.9014 63.7916 40.4701 63.9047L39.7754 64.0867C37.6263 64.65 35.6734 62.6756 36.2601 60.5328L36.403 60.0109C36.526 59.5618 36.4545 59.0818 36.206 58.688V58.688C34.568 56.078 33.698 53.066 33.698 49.964C33.704 40.928 41.054 33.578 50.096 33.578C54.476 33.578 58.586 35.288 61.682 38.384C64.778 41.48 66.482 45.602 66.476 49.976C66.476 59.018 59.12 66.368 50.09 66.368ZM59.078 54.092C58.586 53.846 56.162 52.652 55.712 52.49C55.262 52.328 54.932 52.244 54.602 52.736C54.272 53.228 53.33 54.338 53.042 54.668C52.754 54.998 52.466 55.04 51.974 54.794C51.482 54.548 49.892 54.026 48.014 52.346C46.55 51.038 45.56 49.424 45.272 48.932C44.984 48.44 45.242 48.17 45.488 47.924C45.71 47.702 45.98 47.348 46.226 47.06C46.472 46.772 46.556 46.568 46.718 46.238C46.88 45.908 46.802 45.62 46.676 45.374C46.55 45.128 45.566 42.704 45.158 41.714C44.756 40.754 44.354 40.886 44.048 40.868C43.76 40.856 43.43 40.85 43.106 40.85C42.776 40.85 42.242 40.976 41.792 41.468C41.342 41.96 40.07 43.154 40.07 45.578C40.07 48.002 41.834 50.348 42.08 50.672C42.326 51.002 45.554 55.976 50.498 58.112C51.674 58.622 52.592 58.922 53.306 59.15C54.488 59.528 55.562 59.474 56.408 59.348C57.356 59.204 59.324 58.154 59.732 57.008C60.14 55.856 60.14 54.872 60.02 54.668C59.9 54.464 59.57 54.344 59.078 54.092Z" fill="white"/>
<defs>
<linearGradient id="paint0_linear_8_561" x1="352" y1="254" x2="352" y2="194" gradientUnits="userSpaceOnUse">
<stop stop-color="#0172FF"/>
<stop offset="0.265" stop-color="#0188FF"/>
<stop offset="0.8141" stop-color="#01C0FF"/>
<stop offset="1" stop-color="#01D5FF"/>
</linearGradient>
</defs>
</svg>
